<svg width="242" height="32" viewBox="0 0 242 32" fill="none" xmlns="http://www.w3.org/2000/svg">
<g id="Social">
<g id="twitch">
<g id="Group">
<path id="Subtract" fill-rule="evenodd" clip-rule="evenodd" d="M241.96 15.6255V11.554V2.68042H224.939L222.811 4.97712V17.087H228.13V20.8453H230.471L233.024 18.131H239.407L241.96 15.6255ZM229.407 15.4168H226.003C225.769 15.4168 225.577 15.2289 225.577 14.9992V4.76841C225.577 4.53874 225.769 4.35083 226.003 4.35083H239.62C239.854 4.35083 240.045 4.53874 240.045 4.76841V12.7025C240.045 12.8173 240.003 12.9217 239.923 13L237.582 15.2967C237.503 15.375 237.391 15.4168 237.279 15.4168H233.37L230.072 17.6404C230.003 17.6874 229.918 17.7135 229.832 17.7135C229.763 17.7135 229.699 17.6978 229.636 17.6665C229.492 17.5934 229.407 17.4525 229.407 17.2959V15.4168Z" fill="white"/>
</g>
<path id="Vector" d="M235.79 11.763V7.58716H234.088V11.763H235.79ZM231.535 11.763V7.58716H229.833V11.763H231.535Z" fill="white"/>
</g>
<path id="Vector_2" d="M164.61 0.183838H149.99C147.126 0.183838 144.8 2.5511 144.8 5.46465V12.8975C144.8 15.8166 147.126 18.1783 149.99 18.1783H164.605C167.473 18.1783 169.794 15.8111 169.794 12.8975V5.46465C169.8 2.5511 167.473 0.183838 164.61 0.183838ZM161.096 9.54803L154.258 12.8644C154.073 12.9527 153.867 12.8203 153.867 12.6106V5.76814C153.867 5.55845 154.084 5.42602 154.263 5.51983L161.101 9.04589C161.307 9.15073 161.302 9.4487 161.096 9.54803Z" fill="#FF1313"/>
<g id="cursor">
<path id="Rectangle 9" d="M164.297 12.2629L174.297 22.2629H168.297L164.297 26.2629V12.2629Z" fill="white"/>
<line id="Line" x1="167.69" y1="20.7059" x2="171.69" y2="30.7059" stroke="white" stroke-width="3"/>
</g>
<path id="twitter" fill-rule="evenodd" clip-rule="evenodd" d="M90.2138 4.42991C89.4408 4.75191 88.6098 4.96691 87.7388 5.06491C88.6288 4.56491 89.3118 3.77291 89.6338 2.83091C88.7998 3.29291 87.8778 3.62891 86.8958 3.81091C86.1108 3.02491 84.9898 2.53491 83.7508 2.53491C81.3708 2.53491 79.4398 4.34391 79.4398 6.57391C79.4398 6.89091 79.4778 7.19991 79.5518 7.49491C75.9698 7.32591 72.7938 5.71791 70.6678 3.27491C70.2968 3.87191 70.0848 4.56491 70.0848 5.30591C70.0848 6.70591 70.8458 7.94391 72.0018 8.66791C71.2958 8.64591 70.6318 8.46491 70.0498 8.16191C70.0498 8.17991 70.0498 8.19491 70.0498 8.21391C70.0498 10.1709 71.5348 11.8029 73.5068 12.1739C73.1458 12.2659 72.7638 12.3139 72.3718 12.3139C72.0938 12.3139 71.8238 12.2899 71.5608 12.2439C72.1088 13.8469 73.7008 15.0159 75.5868 15.0489C74.1118 16.1319 72.2538 16.7769 70.2338 16.7769C69.8858 16.7769 69.5428 16.7579 69.2058 16.7209C71.1128 17.8659 73.3788 18.5359 75.8128 18.5359C83.7408 18.5359 88.0758 12.3799 88.0758 7.04291C88.0758 6.86691 88.0708 6.69391 88.0628 6.51991C88.9048 5.94991 89.6358 5.23891 90.2138 4.42991Z" fill="white"/>
<path id="facebook" fill-rule="evenodd" clip-rule="evenodd" d="M6.65382 19.1728H2.56282V9.67884H0.517822V6.40584H2.56282V4.44184C2.56282 1.77284 3.71782 0.183838 6.99582 0.183838H9.72582V3.45684H8.02082C6.74282 3.45684 6.65882 3.91484 6.65882 4.76884L6.65382 6.40584H9.74582L9.38382 9.67884H6.65382V19.1728Z" fill="white"/>
</g>
</svg>
